<svg width="16" height="16" viewBox="0 0 16 16" fill="none" xmlns="http://www.w3.org/2000/svg">
<g clip-path="url(#clip0_0_3)">
<path d="M2.00195 2V1H5.00195V2H2.00195ZM2.00195 5H1.00195V2H2.00195V5ZM5.00195 2H6.00195V5H5.00195V2ZM5.00195 5V6H2.00195V5H5.00195Z" fill="black"/>
<path d="M6.99902 -4.76837e-07H7.99902V1H6.99902V-4.76837e-07ZM6.99902 2H7.99902V7H6.99902V2Z" fill="black"/>
<path d="M8.00195 8H9.00195V9H8.00195V8ZM8.00195 10H9.00195V15H8.00195V10ZM4.00195 14H5.00195V15H4.00195V14ZM8.00195 15V16H5.00195V15H8.00195Z" fill="black"/>
<path d="M11.002 11V10H14.002V11H11.002ZM11.002 14H10.002V11H11.002V14ZM14.002 11H15.002V14H14.002V11ZM14.002 14V15H11.002V14H14.002Z" fill="black"/>
</g>
<defs>
<clipPath id="clip0_0_3">
<rect width="16" height="16" fill="white"/>
</clipPath>
</defs>
</svg>
